<svg width="30" height="30" viewBox="0 0 30 30" fill="none" xmlns="http://www.w3.org/2000/svg">
<g opacity="0.8" clip-path="url(#clip0_44_624)">
<path d="M8.75 0H5C3.67392 0 2.40215 0.526784 1.46447 1.46447C0.526784 2.40215 0 3.67392 0 5L0 8.75C0 10.0761 0.526784 11.3479 1.46447 12.2855C2.40215 13.2232 3.67392 13.75 5 13.75H8.75C10.0761 13.75 11.3479 13.2232 12.2855 12.2855C13.2232 11.3479 13.75 10.0761 13.75 8.75V5C13.75 3.67392 13.2232 2.40215 12.2855 1.46447C11.3479 0.526784 10.0761 0 8.75 0V0ZM11.25 8.75C11.25 9.41304 10.9866 10.0489 10.5178 10.5178C10.0489 10.9866 9.41304 11.25 8.75 11.25H5C4.33696 11.25 3.70107 10.9866 3.23223 10.5178C2.76339 10.0489 2.5 9.41304 2.5 8.75V5C2.5 4.33696 2.76339 3.70107 3.23223 3.23223C3.70107 2.76339 4.33696 2.5 5 2.5H8.75C9.41304 2.5 10.0489 2.76339 10.5178 3.23223C10.9866 3.70107 11.25 4.33696 11.25 5V8.75Z" fill="#005D28"/>
<path d="M25 0H21.25C19.9239 0 18.6521 0.526785 17.7145 1.46447C16.7768 2.40215 16.25 3.67392 16.25 5V8.75C16.25 10.0761 16.7768 11.3479 17.7145 12.2855C18.6521 13.2232 19.9239 13.75 21.25 13.75H25C26.3261 13.75 27.5978 13.2232 28.5355 12.2855C29.4732 11.3479 30 10.0761 30 8.75V5C30 3.67392 29.4732 2.40215 28.5355 1.46447C27.5978 0.526785 26.3261 0 25 0V0ZM27.5 8.75C27.5 9.41305 27.2366 10.0489 26.7678 10.5178C26.2989 10.9866 25.663 11.25 25 11.25H21.25C20.587 11.25 19.9511 10.9866 19.4822 10.5178C19.0134 10.0489 18.75 9.41305 18.75 8.75V5C18.75 4.33696 19.0134 3.70108 19.4822 3.23223C19.9511 2.76339 20.587 2.5 21.25 2.5H25C25.663 2.5 26.2989 2.76339 26.7678 3.23223C27.2366 3.70108 27.5 4.33696 27.5 5V8.75Z" fill="#005D28"/>
<path d="M8.75 16.25H5C3.67392 16.25 2.40215 16.7768 1.46447 17.7145C0.526784 18.6522 0 19.9239 0 21.25L0 25C0 26.3261 0.526784 27.5979 1.46447 28.5355C2.40215 29.4732 3.67392 30 5 30H8.75C10.0761 30 11.3479 29.4732 12.2855 28.5355C13.2232 27.5979 13.75 26.3261 13.75 25V21.25C13.75 19.9239 13.2232 18.6522 12.2855 17.7145C11.3479 16.7768 10.0761 16.25 8.75 16.25ZM11.25 25C11.25 25.6631 10.9866 26.2989 10.5178 26.7678C10.0489 27.2366 9.41304 27.5 8.75 27.5H5C4.33696 27.5 3.70107 27.2366 3.23223 26.7678C2.76339 26.2989 2.5 25.6631 2.5 25V21.25C2.5 20.587 2.76339 19.9511 3.23223 19.4822C3.70107 19.0134 4.33696 18.75 5 18.75H8.75C9.41304 18.75 10.0489 19.0134 10.5178 19.4822C10.9866 19.9511 11.25 20.587 11.25 21.25V25Z" fill="#005D28"/>
<path d="M25 16.25H21.25C19.9239 16.25 18.6521 16.7768 17.7145 17.7145C16.7768 18.6522 16.25 19.9239 16.25 21.25V25C16.25 26.3261 16.7768 27.5979 17.7145 28.5355C18.6521 29.4732 19.9239 30 21.25 30H25C26.3261 30 27.5978 29.4732 28.5355 28.5355C29.4732 27.5979 30 26.3261 30 25V21.25C30 19.9239 29.4732 18.6522 28.5355 17.7145C27.5978 16.7768 26.3261 16.25 25 16.25ZM27.5 25C27.5 25.6631 27.2366 26.2989 26.7678 26.7678C26.2989 27.2366 25.663 27.5 25 27.5H21.25C20.587 27.5 19.9511 27.2366 19.4822 26.7678C19.0134 26.2989 18.75 25.6631 18.75 25V21.25C18.75 20.587 19.0134 19.9511 19.4822 19.4822C19.9511 19.0134 20.587 18.75 21.25 18.75H25C25.663 18.75 26.2989 19.0134 26.7678 19.4822C27.2366 19.9511 27.5 20.587 27.5 21.25V25Z" fill="#005D28"/>
</g>
<defs>
<clipPath id="clip0_44_624">
<rect width="30" height="30" fill="white"/>
</clipPath>
</defs>
</svg>
