<svg width="30" height="30" viewBox="0 0 30 30" fill="none" xmlns="http://www.w3.org/2000/svg">
<g clip-path="url(#clip0_44_635)">
<path d="M0.276231 5.35376C0.147978 5.1435 0.0624064 4.91002 0.0244055 4.66668C-0.0135954 4.42334 -0.00328123 4.17489 0.0547588 3.93553C0.112799 3.69617 0.217427 3.4706 0.362668 3.27169C0.507908 3.07278 0.690914 2.90443 0.901232 2.77626L4.98623 0.276261C5.1963 0.136379 5.43245 0.0403454 5.68052 -0.00608417C5.92859 -0.0525137 6.18348 -0.0483839 6.42992 0.00605788C6.67636 0.0604996 6.90927 0.164133 7.1147 0.310747C7.32012 0.45736 7.49383 0.643937 7.62542 0.859297C7.75701 1.07466 7.84377 1.31436 7.8805 1.56406C7.91723 1.81375 7.90317 2.06829 7.83916 2.31242C7.77516 2.55655 7.66253 2.78524 7.50802 2.9848C7.35351 3.18435 7.16031 3.35066 6.93998 3.47376L2.85373 5.97376C2.64347 6.10201 2.40999 6.18759 2.16665 6.22559C1.92331 6.26359 1.67486 6.25327 1.4355 6.19523C1.19615 6.13719 0.970569 6.03256 0.771657 5.88732C0.572746 5.74208 0.404399 5.55908 0.276231 5.34876V5.35376ZM29.11 22.4788C28.6868 22.2177 28.1772 22.1355 27.6934 22.2501C27.2096 22.3647 26.7911 22.6669 26.53 23.09L24.03 27.1413C23.8948 27.3508 23.8028 27.5852 23.7593 27.8307C23.7158 28.0762 23.7217 28.328 23.7766 28.5712C23.8316 28.8144 23.9345 29.0442 24.0794 29.2471C24.2243 29.4501 24.4082 29.6221 24.6203 29.7531C24.8325 29.8841 25.0686 29.9715 25.315 30.0102C25.5613 30.0488 25.8129 30.0379 26.055 29.9782C26.297 29.9184 26.5248 29.8109 26.7248 29.6621C26.9249 29.5132 27.0932 29.326 27.22 29.1113L29.72 25.06C29.8497 24.8504 29.9368 24.6174 29.9763 24.3741C30.0159 24.1308 30.007 23.8822 29.9504 23.6423C29.8937 23.4024 29.7904 23.1761 29.6461 22.9762C29.5019 22.7764 29.3198 22.6069 29.11 22.4775V22.4788ZM26.0437 19.3538L21.5437 26.685C20.9965 27.5815 20.2521 28.3414 19.367 28.9069C18.482 29.4725 17.4797 29.8288 16.4362 29.9488C16.1611 29.9805 15.8844 29.9968 15.6075 29.9975C14.0711 29.9914 12.5809 29.4708 11.375 28.5188C10.394 29.4698 9.07976 29.9992 7.71345 29.9935C6.34715 29.9877 5.03735 29.4474 4.06438 28.4882C3.09141 27.5289 2.53257 26.227 2.50745 24.8609C2.48233 23.4948 2.99293 22.1731 3.92998 21.1788L2.06248 19.3038C1.31506 18.5625 0.74646 17.6606 0.399901 16.6667C0.053342 15.6727 -0.062055 14.6128 0.0624812 13.5675C0.180979 12.5326 0.533799 11.5384 1.09413 10.6603C1.65447 9.78223 2.40758 9.04342 3.29623 8.50001L10.155 4.26626C12.0469 3.05569 14.2584 2.44039 16.5037 2.49988C18.749 2.55938 20.9248 3.29094 22.75 4.60001L24.3 3.04876C24.6517 2.69702 25.1288 2.49941 25.6262 2.49941C26.1237 2.49941 26.6008 2.69702 26.9525 3.04876C27.3042 3.4005 27.5018 3.87757 27.5018 4.37501C27.5018 4.87245 27.3042 5.34952 26.9525 5.70126L25.4037 7.25001C26.6478 8.99964 27.3685 11.067 27.4818 13.2108C27.5952 15.3546 27.0964 17.4865 26.0437 19.3575V19.3538ZM21.5437 8.47001C20.3309 7.24976 18.7364 6.48205 17.0261 6.29485C15.3159 6.10765 13.5931 6.51227 12.145 7.44126L5.26998 11.6913C4.86442 11.94 4.52083 12.2779 4.26527 12.6792C4.0097 13.0805 3.84888 13.5348 3.79498 14.0075C3.73787 14.4907 3.79173 14.9805 3.95245 15.4397C4.11317 15.8989 4.37653 16.3154 4.72248 16.6575L13.3625 25.3175C13.7049 25.6584 14.1201 25.9175 14.5768 26.0752C15.0335 26.233 15.52 26.2854 15.9999 26.2285C16.4797 26.1717 16.9405 26.007 17.3477 25.7468C17.7549 25.4867 18.098 25.1378 18.3512 24.7263L22.8175 17.4538C23.6098 16.0219 23.9142 14.371 23.6846 12.7507C23.455 11.1305 22.7039 9.6291 21.545 8.47376L21.5437 8.47001Z" fill="black"/>
</g>
<defs>
<clipPath id="clip0_44_635">
<rect width="30" height="30" fill="white"/>
</clipPath>
</defs>
</svg>
