<svg width="30" height="30" viewBox="0 0 30 30" fill="none" xmlns="http://www.w3.org/2000/svg">
<g opacity="0.8" clip-path="url(#clip0_44_612)">
<path d="M23.125 0H6.875C5.05225 0.00198521 3.30472 0.726951 2.01583 2.01583C0.726951 3.30472 0.00198521 5.05225 0 6.875L0 23.125C0.00198521 24.9478 0.726951 26.6953 2.01583 27.9842C3.30472 29.273 5.05225 29.998 6.875 30H23.125C24.9478 29.998 26.6953 29.273 27.9842 27.9842C29.273 26.6953 29.998 24.9478 30 23.125V6.875C29.998 5.05225 29.273 3.30472 27.9842 2.01583C26.6953 0.726951 24.9478 0.00198521 23.125 0V0ZM26.25 23.125C26.25 23.9538 25.9208 24.7487 25.3347 25.3347C24.7487 25.9208 23.9538 26.25 23.125 26.25H22.5V25C22.5 23.0109 21.7098 21.1032 20.3033 19.6967C18.8968 18.2902 16.9891 17.5 15 17.5C13.0109 17.5 11.1032 18.2902 9.6967 19.6967C8.29018 21.1032 7.5 23.0109 7.5 25V26.25H6.875C6.0462 26.25 5.25134 25.9208 4.66529 25.3347C4.07924 24.7487 3.75 23.9538 3.75 23.125V6.875C3.75 6.0462 4.07924 5.25134 4.66529 4.66529C5.25134 4.07924 6.0462 3.75 6.875 3.75H23.125C23.9538 3.75 24.7487 4.07924 25.3347 4.66529C25.9208 5.25134 26.25 6.0462 26.25 6.875V23.125Z" fill="#005D28"/>
<path d="M15 15C17.4162 15 19.375 13.0412 19.375 10.625C19.375 8.20875 17.4162 6.25 15 6.25C12.5838 6.25 10.625 8.20875 10.625 10.625C10.625 13.0412 12.5838 15 15 15Z" fill="#005D28"/>
</g>
<defs>
<clipPath id="clip0_44_612">
<rect width="30" height="30" fill="white"/>
</clipPath>
</defs>
</svg>
