<svg width="30" height="30" viewBox="0 0 30 30" fill="none" xmlns="http://www.w3.org/2000/svg">
<g opacity="0.8" clip-path="url(#clip0_44_618)">
<path d="M21.25 15.6245C21.25 16.1218 21.0525 16.5987 20.7008 16.9504C20.3492 17.302 19.8723 17.4995 19.375 17.4995H10.625C10.1277 17.4995 9.65081 17.302 9.29917 16.9504C8.94754 16.5987 8.75 16.1218 8.75 15.6245C8.75 15.1273 8.94754 14.6503 9.29917 14.2987C9.65081 13.9471 10.1277 13.7495 10.625 13.7495H19.375C19.8723 13.7495 20.3492 13.9471 20.7008 14.2987C21.0525 14.6503 21.25 15.1273 21.25 15.6245ZM15.625 19.9995H10.625C10.1277 19.9995 9.65081 20.1971 9.29917 20.5487C8.94754 20.9003 8.75 21.3773 8.75 21.8745C8.75 22.3718 8.94754 22.8487 9.29917 23.2004C9.65081 23.552 10.1277 23.7495 10.625 23.7495H15.625C16.1223 23.7495 16.5992 23.552 16.9508 23.2004C17.3025 22.8487 17.5 22.3718 17.5 21.8745C17.5 21.3773 17.3025 20.9003 16.9508 20.5487C16.5992 20.1971 16.1223 19.9995 15.625 19.9995ZM27.5 10.1958V23.1245C27.498 24.9473 26.773 26.6948 25.4842 27.9837C24.1953 29.2726 22.4478 29.9976 20.625 29.9995H9.375C7.55225 29.9976 5.80472 29.2726 4.51583 27.9837C3.22695 26.6948 2.50199 24.9473 2.5 23.1245V6.87454C2.50199 5.05179 3.22695 3.30426 4.51583 2.01537C5.80472 0.72649 7.55225 0.00152469 9.375 -0.000460518H17.3038C18.207 -0.00303621 19.1017 0.173627 19.9362 0.519295C20.7706 0.864963 21.5282 1.37277 22.165 2.01329L25.4862 5.33454C26.1267 5.97143 26.6344 6.72902 26.9801 7.56346C27.3257 8.39789 27.5024 9.2926 27.5 10.1958ZM23.75 23.1245V11.2495H18.75C18.087 11.2495 17.4511 10.9861 16.9822 10.5173C16.5134 10.0485 16.25 9.41258 16.25 8.74954V3.74954H9.375C8.5462 3.74954 7.75134 4.07878 7.16529 4.66483C6.57924 5.25088 6.25 6.04574 6.25 6.87454V23.1245C6.25 23.9533 6.57924 24.7482 7.16529 25.3342C7.75134 25.9203 8.5462 26.2495 9.375 26.2495H20.625C21.4538 26.2495 22.2487 25.9203 22.8347 25.3342C23.4208 24.7482 23.75 23.9533 23.75 23.1245Z" fill="#005D28"/>
</g>
<defs>
<clipPath id="clip0_44_618">
<rect width="30" height="30" fill="white"/>
</clipPath>
</defs>
</svg>
