<svg width="30" height="30" viewBox="0 0 30 30" fill="none" xmlns="http://www.w3.org/2000/svg">
<g clip-path="url(#clip0_44_615)">
<path d="M28.7187 10.8675L19.8613 2.01004C17.1745 -0.669852 12.8256 -0.669852 10.1388 2.01004L1.28128 10.8675C0.45816 11.6863 -0.00320588 12.8002 1.67699e-05 13.9613V26.9337C0.00277067 28.627 1.3755 29.9986 3.0688 30H26.9312C28.6245 29.9986 29.9972 28.627 30 26.9337V13.9613C30.0032 12.8002 29.5419 11.6863 28.7187 10.8675ZM26.25 26.25H20V22.2725C20 19.6367 17.8633 17.5 15.2275 17.5H14.7725C12.1368 17.5 10 19.6367 10 22.2725V26.25H3.75001V13.9613C3.75042 13.7955 3.81593 13.6366 3.93253 13.5188L12.79 4.66129C14.0102 3.44073 15.9889 3.44049 17.2094 4.6607C17.2096 4.66088 17.2098 4.66111 17.21 4.66129L26.0675 13.5188C26.184 13.6366 26.2496 13.7955 26.25 13.9613V26.25H26.25Z" fill="#005D28"/>
</g>
<defs>
<clipPath id="clip0_44_615">
<rect width="30" height="30" fill="white"/>
</clipPath>
</defs>
</svg>
