<svg width="30" height="30" viewBox="0 0 30 30" fill="none" xmlns="http://www.w3.org/2000/svg">
<g opacity="0.8" clip-path="url(#clip0_44_605)">
<path d="M29.4513 26.8065L23.6448 20.9976C27.9895 15.1916 26.8048 6.96286 20.9989 2.61821C15.1929 -1.72644 6.96414 -0.541796 2.61949 5.26417C-1.72516 11.0701 -0.540514 19.2989 5.26545 23.6435C9.92929 27.1335 16.335 27.1335 20.9989 23.6435L26.8077 29.4524C27.5377 30.1824 28.7213 30.1824 29.4512 29.4524C30.1812 28.7224 30.1812 27.5389 29.4512 26.809L29.4513 26.8065ZM13.1806 22.5224C8.0205 22.5224 3.83748 18.3393 3.83748 13.1793C3.83748 8.01921 8.0205 3.8362 13.1806 3.8362C18.3406 3.8362 22.5236 8.01921 22.5236 13.1793C22.5182 18.337 18.3384 22.5169 13.1806 22.5224Z" fill="#005D28"/>
<path d="M13 13C14.6569 13 16 11.6569 16 10C16 8.34315 14.6569 7 13 7C11.3431 7 10 8.34315 10 10C10 11.6569 11.3431 13 13 13Z" fill="#005D28"/>
<path d="M13 14C10.5159 14.0028 8.50277 16.0159 8.5 18.5C8.5 18.7761 8.72385 19 8.99999 19H17C17.2761 19 17.5 18.7761 17.5 18.5C17.4972 16.0159 15.4841 14.0027 13 14Z" fill="#005D28"/>
</g>
<defs>
<clipPath id="clip0_44_605">
<rect width="30" height="30" fill="white"/>
</clipPath>
</defs>
</svg>
