<svg width="30" height="30" viewBox="0 0 30 30" fill="none" xmlns="http://www.w3.org/2000/svg">
<g opacity="0.8" clip-path="url(#clip0_44_620)">
<path d="M15 0C12.0333 0 9.13319 0.879735 6.66645 2.52796C4.19972 4.17618 2.27713 6.51886 1.14181 9.25975C0.00649929 12.0006 -0.290551 15.0166 0.288228 17.9264C0.867006 20.8361 2.29562 23.5088 4.3934 25.6066C6.49119 27.7044 9.16394 29.133 12.0737 29.7118C14.9834 30.2906 17.9994 29.9935 20.7403 28.8582C23.4811 27.7229 25.8238 25.8003 27.472 23.3336C29.1203 20.8668 30 17.9667 30 15C29.9957 11.0231 28.414 7.21026 25.6019 4.39815C22.7897 1.58604 18.9769 0.00430135 15 0V0ZM27.5 15C27.4984 15.7973 27.4206 16.5926 27.2675 17.375L24.8525 16.65C25.0492 15.5588 25.0492 14.4412 24.8525 13.35L27.2675 12.625C27.4206 13.4074 27.4984 14.2027 27.5 15ZM26.55 10.23L24.1375 10.9538C23.1267 8.68667 21.3133 6.87335 19.0463 5.8625L19.77 3.45C22.8369 4.72564 25.2744 7.16311 26.55 10.23ZM15 22.5C13.5166 22.5 12.0666 22.0601 10.8332 21.236C9.59986 20.4119 8.63857 19.2406 8.07091 17.8701C7.50325 16.4997 7.35473 14.9917 7.64412 13.5368C7.93351 12.082 8.64781 10.7456 9.69671 9.6967C10.7456 8.64781 12.082 7.9335 13.5368 7.64411C14.9917 7.35472 16.4997 7.50325 17.8701 8.0709C19.2406 8.63856 20.4119 9.59986 21.236 10.8332C22.0601 12.0666 22.5 13.5166 22.5 15C22.498 16.9885 21.7072 18.895 20.3011 20.3011C18.895 21.7072 16.9885 22.498 15 22.5ZM17.375 2.7325L16.65 5.1475C15.5588 4.95083 14.4412 4.95083 13.35 5.1475L12.625 2.7325C14.1932 2.42259 15.8068 2.42259 17.375 2.7325ZM10.23 3.45L10.9538 5.8625C8.68668 6.87335 6.87336 8.68667 5.86251 10.9538L3.45001 10.23C4.72565 7.16311 7.16311 4.72564 10.23 3.45ZM2.50001 15C2.50159 14.2027 2.57944 13.4074 2.73251 12.625L5.14751 13.35C4.95084 14.4412 4.95084 15.5588 5.14751 16.65L2.73251 17.375C2.57944 16.5926 2.50159 15.7973 2.50001 15ZM3.45001 19.77L5.86251 19.0463C6.87336 21.3133 8.68668 23.1266 10.9538 24.1375L10.23 26.55C7.16311 25.2744 4.72565 22.8369 3.45001 19.77ZM12.625 27.27L13.35 24.855C14.4412 25.0517 15.5588 25.0517 16.65 24.855L17.375 27.27C15.8068 27.5799 14.1932 27.5799 12.625 27.27ZM19.77 26.5513L19.0463 24.14C21.3133 23.1292 23.1267 21.3158 24.1375 19.0488L26.55 19.7725C25.2741 22.8384 22.8366 25.2746 19.77 26.5488V26.5513ZM18.2888 13.615C18.5882 14.0147 18.75 14.5006 18.75 15C18.75 15.4994 18.5882 15.9853 18.2888 16.385L15.9225 19.5388C15.8152 19.6821 15.6759 19.7984 15.5158 19.8786C15.3557 19.9587 15.1791 20.0004 15 20.0004C14.8209 20.0004 14.6443 19.9587 14.4842 19.8786C14.3241 19.7984 14.1848 19.6821 14.0775 19.5388L11.7113 16.385C11.4118 15.9853 11.25 15.4994 11.25 15C11.25 14.5006 11.4118 14.0147 11.7113 13.615L14.0775 10.4613C14.1848 10.3179 14.3241 10.2016 14.4842 10.1214C14.6443 10.0413 14.8209 9.99958 15 9.99958C15.1791 9.99958 15.3557 10.0413 15.5158 10.1214C15.6759 10.2016 15.8152 10.3179 15.9225 10.4613L18.2888 13.615Z" fill="#005D28"/>
</g>
<defs>
<clipPath id="clip0_44_620">
<rect width="30" height="30" fill="white"/>
</clipPath>
</defs>
</svg>
