<svg width="234" height="38" viewBox="0 0 234 38" fill="none" xmlns="http://www.w3.org/2000/svg">
<path d="M16.875 11.0469H6.71875V15.4531H10.375C13.0521 15.4531 15.1719 16.1042 16.7344 17.4062C18.3073 18.6979 19.0938 20.4427 19.0938 22.6406C19.0938 24.849 18.3125 26.625 16.75 27.9688C15.1979 29.3021 13.1302 29.9792 10.5469 30H1.98438V7.25H16.875V11.0469ZM6.71875 19.2344V26.2344H10.4531C11.651 26.2344 12.6042 25.9062 13.3125 25.25C14.0312 24.5938 14.3906 23.7135 14.3906 22.6094C14.3906 21.5781 14.0469 20.7656 13.3594 20.1719C12.6823 19.5677 11.75 19.2552 10.5625 19.2344H6.71875ZM31.5938 30C31.3854 29.5938 31.2344 29.0885 31.1406 28.4844C30.0469 29.7031 28.625 30.3125 26.875 30.3125C25.2188 30.3125 23.8438 29.8333 22.75 28.875C21.6667 27.9167 21.125 26.7083 21.125 25.25C21.125 23.4583 21.7865 22.0833 23.1094 21.125C24.4427 20.1667 26.3646 19.6823 28.875 19.6719H30.9531V18.7031C30.9531 17.9219 30.75 17.2969 30.3438 16.8281C29.9479 16.3594 29.3177 16.125 28.4531 16.125C27.6927 16.125 27.0938 16.3073 26.6562 16.6719C26.2292 17.0365 26.0156 17.5365 26.0156 18.1719H21.5C21.5 17.1927 21.8021 16.2865 22.4062 15.4531C23.0104 14.6198 23.8646 13.9688 24.9688 13.5C26.0729 13.0208 27.3125 12.7812 28.6875 12.7812C30.7708 12.7812 32.4219 13.3073 33.6406 14.3594C34.8698 15.401 35.4844 16.8698 35.4844 18.7656V26.0938C35.4948 27.6979 35.7188 28.9115 36.1562 29.7344V30H31.5938ZM27.8594 26.8594C28.526 26.8594 29.1406 26.7135 29.7031 26.4219C30.2656 26.1198 30.6823 25.7188 30.9531 25.2188V22.3125H29.2656C27.0052 22.3125 25.8021 23.0938 25.6562 24.6562L25.6406 24.9219C25.6406 25.4844 25.8385 25.9479 26.2344 26.3125C26.6302 26.6771 27.1719 26.8594 27.8594 26.8594ZM39.25 30V13.0938H46.3125C48.6146 13.0938 50.3802 13.5 51.6094 14.3125C52.8385 15.125 53.4531 16.2917 53.4531 17.8125C53.4531 18.5938 53.1927 19.2969 52.6719 19.9219C52.1615 20.5365 51.4115 21.0104 50.4219 21.3438C51.6302 21.5729 52.5781 22.026 53.2656 22.7031C53.9635 23.3698 54.3125 24.1927 54.3125 25.1719C54.3125 26.7448 53.7188 27.9427 52.5312 28.7656C51.3542 29.5885 49.6406 30 47.3906 30H39.25ZM43.7656 22.9844V26.3906H47.4062C49 26.3906 49.7969 25.8333 49.7969 24.7188C49.7969 23.5833 49.0365 23.0052 47.5156 22.9844H43.7656ZM43.7656 19.9531H46.5625C48.1458 19.9323 48.9375 19.4219 48.9375 18.4219C48.9375 17.8073 48.7188 17.3698 48.2812 17.1094C47.8542 16.849 47.1979 16.7188 46.3125 16.7188H43.7656V19.9531ZM66.875 30C66.6667 29.5938 66.5156 29.0885 66.4219 28.4844C65.3281 29.7031 63.9062 30.3125 62.1562 30.3125C60.5 30.3125 59.125 29.8333 58.0312 28.875C56.9479 27.9167 56.4062 26.7083 56.4062 25.25C56.4062 23.4583 57.0677 22.0833 58.3906 21.125C59.724 20.1667 61.6458 19.6823 64.1562 19.6719H66.2344V18.7031C66.2344 17.9219 66.0312 17.2969 65.625 16.8281C65.2292 16.3594 64.599 16.125 63.7344 16.125C62.974 16.125 62.375 16.3073 61.9375 16.6719C61.5104 17.0365 61.2969 17.5365 61.2969 18.1719H56.7812C56.7812 17.1927 57.0833 16.2865 57.6875 15.4531C58.2917 14.6198 59.1458 13.9688 60.25 13.5C61.3542 13.0208 62.5938 12.7812 63.9688 12.7812C66.0521 12.7812 67.7031 13.3073 68.9219 14.3594C70.151 15.401 70.7656 16.8698 70.7656 18.7656V26.0938C70.776 27.6979 71 28.9115 71.4375 29.7344V30H66.875ZM63.1406 26.8594C63.8073 26.8594 64.4219 26.7135 64.9844 26.4219C65.5469 26.1198 65.9635 25.7188 66.2344 25.2188V22.3125H64.5469C62.2865 22.3125 61.0833 23.0938 60.9375 24.6562L60.9219 24.9219C60.9219 25.4844 61.1198 25.9479 61.5156 26.3125C61.9115 26.6771 62.4531 26.8594 63.1406 26.8594ZM89.4531 21.7031C89.4531 24.3073 88.8594 26.3958 87.6719 27.9688C86.4948 29.5312 84.901 30.3125 82.8906 30.3125C81.1823 30.3125 79.8021 29.7188 78.75 28.5312V36.5H74.2344V13.0938H78.4219L78.5781 14.75C79.6719 13.4375 81.099 12.7812 82.8594 12.7812C84.9427 12.7812 86.5625 13.5521 87.7188 15.0938C88.875 16.6354 89.4531 18.7604 89.4531 21.4688V21.7031ZM84.9375 21.375C84.9375 19.8021 84.6562 18.5885 84.0938 17.7344C83.5417 16.8802 82.7344 16.4531 81.6719 16.4531C80.2552 16.4531 79.2812 16.9948 78.75 18.0781V25C79.3021 26.1146 80.2865 26.6719 81.7031 26.6719C83.8594 26.6719 84.9375 24.9062 84.9375 21.375ZM102.453 13.0938H106.969V30H102.453V19.5625L96.7969 30H92.2656V13.0938H96.7969V23.5156L102.453 13.0938ZM124.516 13.0938V30H120.016V24.1562H117.156L113.906 30H109.328L113.016 23.3906C112.005 22.9219 111.224 22.2865 110.672 21.4844C110.13 20.6823 109.859 19.7708 109.859 18.75C109.859 17.1146 110.49 15.776 111.75 14.7344C113.021 13.6823 114.719 13.1354 116.844 13.0938H124.516ZM116.922 21H120.016V16.7188H117.078C116.276 16.7188 115.625 16.9323 115.125 17.3594C114.625 17.776 114.375 18.2865 114.375 18.8906C114.375 19.4948 114.615 19.9948 115.094 20.3906C115.573 20.7865 116.182 20.9896 116.922 21Z" fill="black"/>
<path d="M153.422 30H149.895V15.7852H143.062V30H139.547V12.9375H153.422V30ZM170.531 21.8555C170.531 23.5352 170.234 25.0078 169.641 26.2734C169.047 27.5391 168.195 28.5156 167.086 29.2031C165.984 29.8906 164.719 30.2344 163.289 30.2344C161.875 30.2344 160.613 29.8945 159.504 29.2148C158.395 28.5352 157.535 27.5664 156.926 26.3086C156.316 25.043 156.008 23.5898 156 21.9492V21.1055C156 19.4258 156.301 17.9492 156.902 16.6758C157.512 15.3945 158.367 14.4141 159.469 13.7344C160.578 13.0469 161.844 12.7031 163.266 12.7031C164.688 12.7031 165.949 13.0469 167.051 13.7344C168.16 14.4141 169.016 15.3945 169.617 16.6758C170.227 17.9492 170.531 19.4219 170.531 21.0938V21.8555ZM166.969 21.082C166.969 19.293 166.648 17.9336 166.008 17.0039C165.367 16.0742 164.453 15.6094 163.266 15.6094C162.086 15.6094 161.176 16.0703 160.535 16.9922C159.895 17.9062 159.57 19.25 159.562 21.0234V21.8555C159.562 23.5977 159.883 24.9492 160.523 25.9102C161.164 26.8711 162.086 27.3516 163.289 27.3516C164.469 27.3516 165.375 26.8906 166.008 25.9688C166.641 25.0391 166.961 23.6875 166.969 21.9141V21.082ZM176.602 23.9883V30H173.086V12.9375H179.742C181.023 12.9375 182.148 13.1719 183.117 13.6406C184.094 14.1094 184.844 14.7773 185.367 15.6445C185.891 16.5039 186.152 17.4844 186.152 18.5859C186.152 20.2578 185.578 21.5781 184.43 22.5469C183.289 23.5078 181.707 23.9883 179.684 23.9883H176.602ZM176.602 21.1406H179.742C180.672 21.1406 181.379 20.9219 181.863 20.4844C182.355 20.0469 182.602 19.4219 182.602 18.6094C182.602 17.7734 182.355 17.0977 181.863 16.582C181.371 16.0664 180.691 15.8008 179.824 15.7852H176.602V21.1406ZM201.422 15.7852H196.195V30H192.68V15.7852H187.523V12.9375H201.422V15.7852ZM211.664 26.4844H205.5L204.328 30H200.59L206.941 12.9375H210.199L216.586 30H212.848L211.664 26.4844ZM206.449 23.6367H210.715L208.57 17.25L206.449 23.6367ZM232.266 12.9375V30H228.738V15.7852H224.191L223.91 21.8086C223.793 23.8398 223.535 25.4414 223.137 26.6133C222.738 27.7773 222.156 28.6328 221.391 29.1797C220.625 29.7188 219.578 29.9922 218.25 30H217.336V27.1758L217.922 27.1172C218.805 27 219.434 26.4922 219.809 25.5938C220.191 24.6875 220.434 23.0781 220.535 20.7656L220.828 12.9375H232.266Z" fill="black" fill-opacity="0.6"/>
<rect x="131" y="5" width="3" height="31" fill="#C4C4C4"/>
</svg>
